<?xml version="1.0" encoding="UTF-8" standalone="no"?>
<!-- Created with Inkscape (http://www.inkscape.org/) -->

<svg
   xmlns:dc="http://purl.org/dc/elements/1.1/"
   xmlns:cc="http://creativecommons.org/ns#"
   xmlns:rdf="http://www.w3.org/1999/02/22-rdf-syntax-ns#"
   xmlns:svg="http://www.w3.org/2000/svg"
   xmlns="http://www.w3.org/2000/svg"
   xmlns:xlink="http://www.w3.org/1999/xlink"
   version="1.0"
   width="1920"
   height="1080"
   id="svg2383">
  <defs
     id="defs2385">
    <linearGradient
       id="linearGradient16891">
      <stop
         id="stop16893"
         style="stop-color:#000000;stop-opacity:1"
         offset="0" />
      <stop
         id="stop16895"
         style="stop-color:#000000;stop-opacity:0"
         offset="1" />
    </linearGradient>
    <linearGradient
       id="linearGradient7510">
      <stop
         id="stop7512"
         style="stop-color:#000000;stop-opacity:1"
         offset="0" />
      <stop
         id="stop7514"
         style="stop-color:#000000;stop-opacity:0"
         offset="1" />
    </linearGradient>
    <linearGradient
       id="linearGradient7486">
      <stop
         id="stop7488"
         style="stop-color:#000000;stop-opacity:1"
         offset="0" />
      <stop
         id="stop7490"
         style="stop-color:#000000;stop-opacity:0"
         offset="1" />
    </linearGradient>
    <linearGradient
       id="linearGradient3107">
      <stop
         id="stop3109"
         style="stop-color:#000000;stop-opacity:1"
         offset="0" />
      <stop
         id="stop3111"
         style="stop-color:#000000;stop-opacity:0"
         offset="1" />
    </linearGradient>
    <linearGradient
       id="linearGradient3182">
      <stop
         id="stop3184"
         style="stop-color:#ffffff;stop-opacity:0.55000001"
         offset="0" />
      <stop
         id="stop3186"
         style="stop-color:#ffffff;stop-opacity:0"
         offset="1" />
    </linearGradient>
    <linearGradient
       id="linearGradient3174">
      <stop
         id="stop3176"
         style="stop-color:#324da7;stop-opacity:0.55000001"
         offset="0" />
      <stop
         id="stop3178"
         style="stop-color:#324da7;stop-opacity:0"
         offset="1" />
    </linearGradient>
    <linearGradient
       id="linearGradient3190">
      <stop
         id="stop3192"
         style="stop-color:#324da7;stop-opacity:1"
         offset="0" />
      <stop
         id="stop3194"
         style="stop-color:#324da7;stop-opacity:0"
         offset="1" />
    </linearGradient>
    <linearGradient
       id="linearGradient3267">
      <stop
         id="stop3269"
         style="stop-color:#0000ff;stop-opacity:0"
         offset="0" />
      <stop
         id="stop3275"
         style="stop-color:#ffffff;stop-opacity:1"
         offset="0.48768985" />
      <stop
         id="stop3271"
         style="stop-color:#0000ff;stop-opacity:0"
         offset="1" />
    </linearGradient>
    <linearGradient
       x1="333.26617"
       y1="671.26709"
       x2="1668.8561"
       y2="671.26709"
       id="linearGradient3273"
       xlink:href="#linearGradient3267"
       gradientUnits="userSpaceOnUse"
       gradientTransform="matrix(0.4475832,0,0,1.1594093,-317.72844,-354.23847)" />
    <linearGradient
       x1="333.26617"
       y1="671.26709"
       x2="1668.8561"
       y2="671.26709"
       id="linearGradient3463"
       xlink:href="#linearGradient3267"
       gradientUnits="userSpaceOnUse"
       gradientTransform="matrix(0.4475832,0,0,1.1594093,-317.72845,-255.93349)" />
    <linearGradient
       x1="1917.6716"
       y1="542.59882"
       x2="1622.8263"
       y2="542.59882"
       id="linearGradient3196"
       xlink:href="#linearGradient3190"
       gradientUnits="userSpaceOnUse"
       gradientTransform="translate(-480.00173,0)" />
    <linearGradient
       x1="1917.6716"
       y1="542.59882"
       x2="1622.8263"
       y2="542.59882"
       id="linearGradient3200"
       xlink:href="#linearGradient3190"
       gradientUnits="userSpaceOnUse"
       gradientTransform="matrix(-1,0,0,1,1920.0025,0.0777)" />
    <linearGradient
       x1="513.01154"
       y1="-540.84637"
       x2="513.01154"
       y2="-636.17462"
       id="linearGradient3180"
       xlink:href="#linearGradient3174"
       gradientUnits="userSpaceOnUse" />
    <linearGradient
       x1="719.99805"
       y1="-540.84637"
       x2="719.99805"
       y2="-631.5105"
       id="linearGradient3188"
       xlink:href="#linearGradient3182"
       gradientUnits="userSpaceOnUse" />
    <linearGradient
       x1="513.01154"
       y1="-540.84637"
       x2="513.01154"
       y2="-636.17462"
       id="linearGradient3197"
       xlink:href="#linearGradient3174"
       gradientUnits="userSpaceOnUse" />
    <linearGradient
       x1="719.99805"
       y1="-540.84637"
       x2="719.99805"
       y2="-631.5105"
       id="linearGradient3199"
       xlink:href="#linearGradient3182"
       gradientUnits="userSpaceOnUse" />
    <linearGradient
       x1="917.01398"
       y1="888.50836"
       x2="911.02991"
       y2="86.637558"
       id="linearGradient3137"
       xlink:href="#linearGradient3107"
       gradientUnits="userSpaceOnUse" />
    <linearGradient
       x1="917.01398"
       y1="888.50836"
       x2="911.02991"
       y2="86.637558"
       id="linearGradient3167"
       xlink:href="#linearGradient3107"
       gradientUnits="userSpaceOnUse" />
    <linearGradient
       x1="917.01398"
       y1="888.50836"
       x2="911.02991"
       y2="86.637558"
       id="linearGradient3169"
       xlink:href="#linearGradient3107"
       gradientUnits="userSpaceOnUse" />
    <linearGradient
       x1="305.05499"
       y1="213.71584"
       x2="308.16394"
       y2="335.74316"
       id="linearGradient19713"
       xlink:href="#linearGradient17405"
       gradientUnits="userSpaceOnUse" />
    <linearGradient
       id="linearGradient17405">
      <stop
         id="stop17407"
         style="stop-color:#000000;stop-opacity:1"
         offset="0" />
      <stop
         id="stop17409"
         style="stop-color:#000000;stop-opacity:0"
         offset="1" />
    </linearGradient>
    <linearGradient
       x1="305.05499"
       y1="213.71584"
       x2="308.16394"
       y2="335.74316"
       id="linearGradient19711"
       xlink:href="#linearGradient17405"
       gradientUnits="userSpaceOnUse" />
    <linearGradient
       x1="305.05499"
       y1="213.71584"
       x2="308.16394"
       y2="335.74316"
       id="linearGradient7046"
       xlink:href="#linearGradient17405"
       gradientUnits="userSpaceOnUse" />
    <linearGradient
       x1="146.68677"
       y1="580.69421"
       x2="149.50771"
       y2="1065.8953"
       id="linearGradient7492"
       xlink:href="#linearGradient7486"
       gradientUnits="userSpaceOnUse" />
    <linearGradient
       x1="306.85431"
       y1="983.64685"
       x2="310.21335"
       y2="655.75055"
       id="linearGradient7508"
       xlink:href="#linearGradient7510"
       gradientUnits="userSpaceOnUse"
       gradientTransform="matrix(0.96918768,0,0,2.225056,38.100466,-1268.298)" />
    <linearGradient
       x1="184.46027"
       y1="226.8354"
       x2="184.46027"
       y2="320.43924"
       id="linearGradient16897"
       xlink:href="#linearGradient16891"
       gradientUnits="userSpaceOnUse" />
    <clipPath
       id="clipPath12411">
      <path
         d="m 0,841.89 595.28,0 L 595.28,0 0,0 0,841.89 z"
         id="path12413" />
    </clipPath>
  </defs>
  <metadata
     id="metadata2388">
    <rdf:RDF>
      <cc:Work
         rdf:about="">
        <dc:format>image/svg+xml</dc:format>
        <dc:type
           rdf:resource="http://purl.org/dc/dcmitype/StillImage" />
        <dc:title></dc:title>
      </cc:Work>
    </rdf:RDF>
  </metadata>
  <g
     id="layer2"
     style="display:inline">
    <g
       id="g12437">
      <path
         d="M 1290.0482,111.12412 C 1171.5536,59.831228 1041.6798,49.435401 915.38875,52.971826 c -96.80892,4.543207 -195.04069,18.1579 -285.43614,58.152294 7.55273,181.39989 38.75141,366.52949 122.22439,525.56747 41.53031,76.13033 102.85371,153.02191 187.6376,165.8011 78.554,11.55262 149.2392,-45.63805 194.1197,-110.97402 89.0118,-130.39656 127.0796,-293.21986 146.5712,-452.12201 4.8577,-42.58188 7.9975,-85.39511 9.5427,-128.27254 z"
         id="path6730"
         style="fill:#ffffff;fill-opacity:1;stroke:#005a00;stroke-width:21.58433723;stroke-linecap:square;stroke-linejoin:miter;stroke-miterlimit:4;stroke-opacity:1;stroke-dasharray:none;stroke-dashoffset:0" />
      <path
         d="M 1258.198,137.02469 C 1151.1388,89.922369 1033.7976,80.376224 919.69426,83.623451 832.22699,87.794618 743.47494,100.29767 661.80282,137.02469 c 6.82395,166.58026 35.01161,336.58612 110.42921,482.63109 37.52297,69.91052 92.92808,140.51998 169.53083,152.25582 70.97294,10.60815 134.83714,-41.90983 175.38644,-101.90851 80.4224,-119.74325 114.8168,-269.26531 132.4258,-415.18527 4.3898,-39.10292 7.2269,-78.41855 8.6229,-117.79313 z"
         id="path6732"
         style="fill:none;stroke:#969696;stroke-width:8.51196957;stroke-linecap:square;stroke-linejoin:miter;stroke-miterlimit:4;stroke-opacity:1;stroke-dasharray:none;stroke-dashoffset:0;marker-start:none;marker-mid:none;marker-end:none" />
      <path
         d="m 1315.5729,362.02813 -18.4252,96.17272 c -12.7856,-4.61015 -25.5623,-8.92185 -38.3366,-13.0173 l -4.755,23.89745 114.7129,40.412 -33.5815,-76.16105 58.2479,-44.10343 -77.8625,-27.20039 z"
         id="path6736"
         style="fill:#005a00;fill-opacity:1;stroke:none" />
      <path
         d="m 603.77535,325.26842 c 218.43013,-79.34984 487.87175,-79.46944 713.24275,0 l -23.7747,124.34452 c -223.6107,-80.62701 -445.55272,-82.72446 -665.69333,0 z"
         id="path6738"
         style="fill:#008000;stroke:none" />
      <path
         d="m 604.42688,362.02813 18.42545,96.17272 c 12.78558,-4.61015 25.56216,-8.92185 38.33679,-13.0173 l 4.75498,23.89745 -114.71322,40.412 33.58185,-76.16105 -58.24816,-44.10343 77.86231,-27.20039 z"
         id="path6740"
         style="fill:#005a00;fill-opacity:1;stroke:none" />
      <g
         transform="matrix(-2.3958937,0,0,-2.3958852,1584.0854,1433.3591)"
         id="g6748"
         style="stroke:none">
        <path
           d="m 271.75007,321.85643 37.49986,0"
           id="path6750"
           style="fill:none;stroke:none" />
        <path
           d="m 290.5,303.10649 0,37.49989"
           id="path6752"
           style="fill:none;stroke:none" />
        <path
           d="m 309.23637,321.85643 c 0,10.34777 -8.38853,18.7363 -18.7363,18.7363 -10.34777,0 -18.7363,-8.38853 -18.7363,-18.7363 0,-10.34778 8.38853,-18.7363 18.7363,-18.7363 10.34777,0 18.7363,8.38852 18.7363,18.7363 z"
           id="path6754"
           style="fill:none;stroke:none" />
      </g>
      <g
         transform="matrix(-2.3958937,0,0,-2.3958852,1392.4133,972.49512)"
         id="g6756"
         style="stroke:none">
        <path
           d="m 131.75008,129.49998 37.49985,0"
           id="path6758"
           style="fill:none;stroke:none" />
        <path
           d="m 150.50001,110.75004 0,37.49988"
           id="path6760"
           style="fill:none;stroke:none" />
        <path
           d="m 310,70 c 0,11.045695 -11.19288,20 -25,20 -13.80712,0 -25,-8.954305 -25,-20 0,-11.045695 11.19288,-20 25,-20 13.80712,0 25,8.954305 25,20 z"
           transform="matrix(0.75,0,0,0.9375,-63.25,63.87497)"
           id="path6762"
           style="fill:none;stroke:none" />
      </g>
      <path
         d="m 1031.8314,662.22769 -143.75353,-8.6e-4"
         id="path6764"
         style="fill:none;stroke:none" />
      <path
         d="m 1031.8565,707.1629 c 22.7465,0.54145 43.5743,-18.75164 44.792,-41.46647 2.2296,-22.26317 -14.7519,-44.20009 -36.8397,-47.67763 -12.4475,-2.6414 -24.7896,1.82676 -35.6344,7.58916 -30.85933,13.58331 -67.88858,11.61739 -97.36147,-4.17274 -20.2615,-9.94792 -46.89149,-1.2952 -57.67734,18.45221 -11.38451,18.87235 -5.86646,45.51722 12.09706,58.29768 13.96143,10.80272 34.40317,11.63748 49.41885,2.94713 31.97563,-15.88234 71.40425,-14.89212 102.764,2.02301 5.7708,2.62252 12.0996,4.01537 18.441,4.00765 z"
         id="path6766"
         style="fill:#4d4d4d;fill-opacity:1;fill-rule:nonzero;stroke:none" />
      <g
         transform="matrix(-1.1651265,0,0,-1.1651223,1227.1628,1036.6147)"
         id="g6768"
         style="stroke:none">
        <path
           d="m 310.2486,321.32824 c 0,10.61505 -8.60519,19.22024 -19.22024,19.22024 -10.61504,0 -19.22024,-8.60519 -19.22024,-19.22024 0,-10.61505 8.6052,-19.22024 19.22024,-19.22024 10.61505,0 19.22024,8.60519 19.22024,19.22024 z"
           id="path6770"
           style="fill:#9d9d9d;fill-opacity:1;fill-rule:nonzero;stroke:none" />
      </g>
      <g
         transform="matrix(-1.1651265,0,0,-1.1651223,1370.9163,1036.6147)"
         id="g6772"
         style="stroke:none">
        <path
           d="m 310,70 c 0,11.045695 -11.19288,20 -25,20 -13.80712,0 -25,-8.954305 -25,-20 0,-11.045695 11.19288,-20 25,-20 13.80712,0 25,8.954305 25,20 z"
           transform="matrix(0.7711267,0,0,0.9639084,71.257055,253.85467)"
           id="path6774"
           style="fill:#9d9d9d;fill-opacity:1;fill-rule:nonzero;stroke:none" />
      </g>
      <g
         id="text6776"
         style="font-size:46.59468079px;font-style:normal;font-variant:normal;font-weight:bold;font-stretch:normal;line-height:125%;letter-spacing:0px;word-spacing:0px;fill:#008000;fill-opacity:1;stroke:none;font-family:Ubuntu;-inkscape-font-specification:Sans Bold">
        <path
           d="m 1018.0285,659.1333 10.5326,0 3.2706,-10.00512 3.2882,10.00512 10.515,0 -8.5105,6.20704 3.2706,9.98753 -8.5633,-6.18946 -8.5457,6.18946 3.253,-9.98753 -8.5105,-6.20704"
           id="path12311"
           style="font-size:36.01138306px;font-weight:normal;fill:#008000;font-family:Blenda Script;-inkscape-font-specification:Blenda Script" />
      </g>
      <g
         id="text6780"
         style="font-size:46.59468079px;font-style:normal;font-variant:normal;font-weight:bold;font-stretch:normal;line-height:125%;letter-spacing:0px;word-spacing:0px;fill:#ffffff;fill-opacity:1;stroke:none;font-family:Ubuntu;-inkscape-font-specification:Sans Bold">
        <path
           d="m 931.28333,671.74658 -14.50653,0 0,-1.33636 c 0.35167,-0.0234 0.90848,-0.082 1.67045,-0.17583 0.77367,-0.0938 1.30118,-0.18756 1.58253,-0.28134 0.35166,-0.11723 0.62714,-0.31651 0.82643,-0.59785 0.19928,-0.28134 0.29892,-0.66818 0.29892,-1.16052 l 0,-11.14806 -4.44867,0 0,-1.67045 0.9671,0 c 1.01985,2e-5 1.89904,-0.11134 2.63756,-0.33409 0.75023,-0.22271 1.37152,-0.49232 1.86387,-0.80885 0.50405,-0.32821 0.91434,-0.66816 1.23085,-1.01985 0.32822,-0.35165 0.58612,-0.6623 0.77369,-0.93194 l 3.09472,0 c -0.0352,0.76198 -0.0703,1.65289 -0.1055,2.67272 -0.0352,1.01987 -0.0528,1.93422 -0.0528,2.74306 l 0,10.30404 c -10e-6,0.42201 0.0879,0.79127 0.26376,1.10777 0.18754,0.30479 0.4513,0.53923 0.79126,0.70335 0.30477,0.14067 0.8147,0.26962 1.52978,0.38684 0.71506,0.11722 1.24257,0.18756 1.58253,0.211 l 0,1.33636"
           id="path12302"
           style="font-weight:bold;fill:#ffffff;font-family:Georgia;-inkscape-font-specification:Blenda Script" />
        <path
           d="m 953.82562,662.81407 c -3e-5,4.26698 -1.44189,7.75441 -4.32559,10.46229 -2.88374,2.71961 -6.82248,4.40764 -11.81623,5.0641 l -0.40443,-1.74078 1.86387,-0.31651 c 1.44185,-0.41029 2.63754,-0.9378 3.58707,-1.58253 0.94951,-0.64474 1.72905,-1.39497 2.33863,-2.25071 0.633,-0.87918 1.11362,-1.81112 1.44186,-2.79581 0.32822,-0.98468 0.57439,-1.99867 0.73852,-3.04197 -1.03159,0.90263 -2.03386,1.50047 -3.00681,1.79353 -0.96125,0.28134 -2.04558,0.42201 -3.25298,0.42201 -1.00814,0 -1.9518,-0.19928 -2.83098,-0.59784 -0.87918,-0.39856 -1.64114,-0.94366 -2.28587,-1.63529 -0.65646,-0.70334 -1.17225,-1.54735 -1.54737,-2.53205 -0.3634,-0.9964 -0.54509,-2.07486 -0.54509,-3.2354 0,-2.47342 0.94951,-4.51899 2.84855,-6.1367 1.89904,-1.6294 4.27283,-2.44411 7.1214,-2.44413 3.08299,2e-5 5.53298,0.9554 7.34998,2.86614 1.81696,1.91077 2.72544,4.47799 2.72547,7.70165 m -6.41805,0.9671 c -10e-6,-0.1641 0.006,-0.36338 0.0176,-0.59784 0.0117,-0.23444 0.0176,-0.46303 0.0176,-0.68577 -2e-5,-2.81337 -0.33997,-4.96444 -1.01985,-6.45321 -0.6682,-1.50045 -1.54152,-2.25069 -2.61997,-2.25071 -1.04331,2e-5 -1.89319,0.56856 -2.54964,1.70562 -0.64474,1.13709 -0.96711,2.77823 -0.9671,4.92343 -10e-6,1.8756 0.32822,3.37021 0.98469,4.48384 0.66817,1.11364 1.54149,1.67045 2.61997,1.67045 0.67989,0 1.30704,-0.1348 1.88145,-0.40443 0.57439,-0.26961 1.10776,-0.77367 1.60011,-1.51219 -10e-6,-0.0586 0.006,-0.15825 0.0176,-0.29892 0.0117,-0.15239 0.0176,-0.34581 0.0176,-0.58027"
           id="path12304"
           style="font-weight:bold;fill:#ffffff;font-family:Georgia;-inkscape-font-specification:Blenda Script" />
        <path
           d="m 977.17675,662.81407 c -2e-5,4.26698 -1.44188,7.75441 -4.32559,10.46229 -2.88374,2.71961 -6.82248,4.40764 -11.81623,5.0641 l -0.40443,-1.74078 1.86387,-0.31651 c 1.44186,-0.41029 2.63755,-0.9378 3.58707,-1.58253 0.94951,-0.64474 1.72905,-1.39497 2.33863,-2.25071 0.633,-0.87918 1.11362,-1.81112 1.44187,-2.79581 0.32821,-0.98468 0.57438,-1.99867 0.73851,-3.04197 -1.03159,0.90263 -2.03386,1.50047 -3.00681,1.79353 -0.96125,0.28134 -2.04558,0.42201 -3.25298,0.42201 -1.00814,0 -1.9518,-0.19928 -2.83097,-0.59784 -0.87919,-0.39856 -1.64115,-0.94366 -2.28588,-1.63529 -0.65646,-0.70334 -1.17225,-1.54735 -1.54737,-2.53205 -0.36339,-0.9964 -0.54509,-2.07486 -0.54509,-3.2354 0,-2.47342 0.94952,-4.51899 2.84856,-6.1367 1.89903,-1.6294 4.27282,-2.44411 7.12139,-2.44413 3.08299,2e-5 5.53298,0.9554 7.34998,2.86614 1.81696,1.91077 2.72545,4.47799 2.72547,7.70165 m -6.41805,0.9671 c -10e-6,-0.1641 0.006,-0.36338 0.0176,-0.59784 0.0117,-0.23444 0.0176,-0.46303 0.0176,-0.68577 -10e-6,-2.81337 -0.33997,-4.96444 -1.01985,-6.45321 -0.6682,-1.50045 -1.54152,-2.25069 -2.61997,-2.25071 -1.04331,2e-5 -1.89319,0.56856 -2.54964,1.70562 -0.64474,1.13709 -0.96711,2.77823 -0.9671,4.92343 -10e-6,1.8756 0.32822,3.37021 0.98469,4.48384 0.66817,1.11364 1.54149,1.67045 2.61997,1.67045 0.67989,0 1.30704,-0.1348 1.88145,-0.40443 0.57439,-0.26961 1.10776,-0.77367 1.60012,-1.51219 -2e-5,-0.0586 0.006,-0.15825 0.0176,-0.29892 0.0117,-0.15239 0.0176,-0.34581 0.0176,-0.58027"
           id="path12306"
           style="font-weight:bold;fill:#ffffff;font-family:Georgia;-inkscape-font-specification:Blenda Script" />
        <path
           d="m 1001.5301,664.76586 c 0,2.15694 -0.9671,3.96805 -2.90126,5.43336 -1.9225,1.4653 -4.54247,2.19796 -7.85991,2.19796 -2.96579,0 -5.36303,-0.62715 -7.19172,-1.88146 -1.82871,-1.2543 -2.74306,-2.86027 -2.74306,-4.81792 0,-1.51219 0.48648,-2.75477 1.45945,-3.72775 0.98468,-0.98467 2.53204,-1.72319 4.64209,-2.21554 -1.68804,-0.76195 -2.96579,-1.72319 -3.83324,-2.88372 -0.85575,-1.16051 -1.28362,-2.45584 -1.28361,-3.886 -10e-6,-1.95763 0.93193,-3.59877 2.7958,-4.92343 1.87559,-1.32461 4.19077,-1.98693 6.94556,-1.98696 2.6727,3e-5 4.83549,0.58615 6.48838,1.75837 1.66456,1.17227 2.49682,2.62585 2.49692,4.36076 -10e-5,1.33637 -0.4514,2.46173 -1.35398,3.37606 -0.90265,0.90265 -2.25073,1.62358 -4.04425,2.1628 2.25069,0.80886 3.87425,1.80527 4.87063,2.98922 1.0082,1.17226 1.5122,2.52034 1.5122,4.04425 m -6.85759,-12.6075 c -2e-5,-1.35978 -0.3048,-2.45583 -0.91435,-3.28815 -0.59786,-0.84399 -1.43602,-1.266 -2.51447,-1.26602 -1.01986,2e-5 -1.86388,0.35755 -2.53205,1.0726 -0.66819,0.71509 -1.00228,1.62944 -1.00227,2.74305 -1e-5,0.77371 0.14652,1.4243 0.43959,1.95179 0.29305,0.51581 0.7092,0.96712 1.24844,1.35395 0.49234,0.36341 1.18396,0.76197 2.07488,1.19569 0.90261,0.43374 1.7056,0.82645 2.40896,1.1781 0.25788,-0.5861 0.4513,-1.30117 0.58026,-2.14521 0.14066,-0.85572 0.21099,-1.78765 0.21101,-2.7958 m 0.94952,14.38345 c -2e-5,-0.82056 -0.17586,-1.50047 -0.52751,-2.03971 -0.35169,-0.53922 -0.85576,-1.0257 -1.5122,-1.45944 -0.65647,-0.422 -1.49463,-0.85573 -2.51447,-1.30119 -1.00814,-0.44545 -1.96938,-0.89676 -2.88372,-1.35395 -0.38685,0.45719 -0.7268,1.14295 -1.01985,2.05729 -0.29307,0.91436 -0.4396,1.88147 -0.4396,2.90131 0,1.72321 0.41614,3.07129 1.24845,4.04425 0.83228,0.97296 1.92833,1.45945 3.28814,1.45944 1.3598,10e-6 2.42654,-0.39856 3.20023,-1.19569 0.77367,-0.79712 1.16051,-1.83456 1.16053,-3.11231"
           id="path12308"
           style="font-weight:bold;fill:#ffffff;font-family:Georgia;-inkscape-font-specification:Blenda Script" />
      </g>
      <g
         id="text6786"
         style="font-size:46.59468079px;font-style:normal;font-variant:normal;font-weight:bold;font-stretch:normal;line-height:125%;letter-spacing:0px;word-spacing:0px;fill:#008000;fill-opacity:1;stroke:none;font-family:Ubuntu;-inkscape-font-specification:Sans Bold">
        <path
           d="m 874.27485,659.1333 10.53262,0 3.27057,-10.00512 3.28815,10.00512 10.51504,0 -8.5105,6.20704 3.27056,9.98753 -8.56325,-6.18946 -8.54567,6.18946 3.25298,-9.98753 -8.5105,-6.20704"
           id="path12299"
           style="font-size:36.01138306px;font-weight:normal;fill:#008000;font-family:Blenda Script;-inkscape-font-specification:Blenda Script" />
      </g>
      <g
         id="text6798"
         style="font-size:260.39706421px;font-style:normal;font-variant:normal;font-weight:bold;font-stretch:normal;line-height:125%;letter-spacing:0px;word-spacing:0px;fill:#000000;fill-opacity:1;stroke:none;font-family:Ubuntu;-inkscape-font-specification:Sans Bold">
        <path
           d="m 759.0308,488.99049 c 1.04159,-0.2604 1.82278,-1.82278 1.82278,-4.16636 0,-3.64555 -2.08317,-5.20794 -2.86436,-8.8535 2.86436,-20.31095 26.56052,-29.68526 46.61107,-29.68526 17.18619,0 32.28925,4.42675 48.17346,8.8535 -3.64556,4.94754 -8.07232,11.45748 -13.01986,18.74859 l -12.23866,0 c -4.16635,0 -4.16635,0.78119 -4.16635,1.56238 0,0.78119 8.07231,2.60397 11.19707,6.24953 -13.01984,19.52976 -28.38328,51.55862 -35.414,51.55862 -4.16635,0 -10.41588,-2.34358 -10.41588,-6.24953 0,-2.34357 3.64556,-4.16636 6.50993,-5.20794 2.08317,1.04158 3.90595,1.82278 5.72873,1.82278 3.12476,0 5.46834,-1.04159 5.46834,-2.60397 0,-1.56238 -2.34358,-3.12477 -5.72873,-3.12477 -12.23865,0 -15.36343,6.77033 -15.36343,9.1139 0,7.8119 8.59311,9.63469 14.84263,9.63469 13.80103,0 32.28925,-41.14275 47.65266,-59.63093 l 5.46834,0 c 1.30199,0 3.64556,0 3.64556,-1.56238 0,-1.30198 -2.34357,-1.56238 -3.64556,-1.56238 l -3.38516,0 0.2604,-0.2604 c 4.94754,-5.46833 10.41589,-10.67628 16.66541,-14.84263 10.15547,2.34357 20.57138,4.16635 31.24765,4.16635 4.42674,0 15.62382,-0.5208 15.62382,-10.15548 0,-8.5931 -10.67628,-8.33271 -15.10303,-8.33271 -11.71785,0 -22.65455,4.42676 -32.28923,10.93668 -1.56239,-0.5208 -2.86437,-0.7812 -4.16636,-1.04159 l 1.56238,-2.86437 c 0,0 1.04159,-2.08318 1.04159,-4.16635 0,-1.82278 -1.04159,-4.16636 -3.64556,-4.16636 -0.52079,0 -0.78119,0.7812 -6.50992,9.1139 -15.88421,-4.42674 -31.76846,-9.1139 -49.99624,-9.1139 -19.26936,0 -49.73584,8.59314 -49.73584,38.01798 0,4.68714 2.08318,7.81191 4.16635,7.81191 m 77.33793,-9.89509 c -0.78119,-0.78119 -1.56238,-1.56238 -2.34357,-2.08318 l 3.64556,0 c -0.5208,0.78119 -0.78119,1.30199 -1.30199,2.08318 m 61.71411,-19.26938 c -9.37429,0 -18.4882,-1.56239 -27.60209,-3.38517 8.59309,-5.46833 17.96741,-8.8535 27.86248,-8.8535 4.94754,0 12.49906,0.26041 12.49906,5.20795 0,5.72872 -8.5931,7.03072 -12.75945,7.03072 m -37.75758,-2.60397 c 0.78119,0 1.56239,0.26039 2.34358,0.52079 -1.82278,1.56238 -3.64556,3.12477 -5.46834,4.68715 l 3.12476,-5.20794"
           id="path12280"
           style="font-style:italic;fill:#000000;font-family:Dragon is Coming;-inkscape-font-specification:Dragon is Coming Bold Italic" />
        <path
           d="m 871.73391,485.86572 c -0.78119,5.46834 -4.42675,10.93668 -5.20794,12.75946 -0.52079,1.30198 -1.04158,4.68715 1.30199,4.68715 1.30198,0 8.07231,-2.86438 8.07231,-14.84264 0,-5.20793 -2.34358,-7.55151 -5.46834,-7.55151 -6.77032,0 -17.44661,10.41589 -22.39415,15.62382 2.86436,-4.42674 9.1139,-11.19708 9.1139,-14.32184 0,-0.78119 -0.5208,-1.04159 -1.30199,-1.30198 -8.59309,-1.56238 -17.70701,18.48821 -26.8209,38.01797 -1.30198,2.60397 -1.30198,4.94755 -1.30198,6.50993 0,2.08317 0.52079,3.38516 1.30198,3.38516 1.82278,0 2.34358,-3.12477 6.24953,-9.63469 7.81191,-13.28024 19.009,-26.56051 32.28924,-33.85162 1.30198,-0.78119 4.16635,-1.56238 4.16635,0.52079"
           id="path12282"
           style="font-style:italic;fill:#000000;font-family:Dragon is Coming;-inkscape-font-specification:Dragon is Coming Bold Italic" />
        <path
           d="m 921.06289,485.08453 c 0.26039,-0.2604 0.78119,-1.56238 0.78119,-2.60397 0,-0.78119 -0.2604,-1.56238 -1.82278,-1.56238 -5.98913,0 -9.3743,5.72874 -11.97827,9.63469 1.30199,-7.29111 -3.90596,-11.19707 -9.11389,-8.8535 0,0 -7.81193,1.302 -22.39415,19.26938 0,0 -9.3743,11.71788 -9.3743,20.83177 0,2.34357 0.26041,7.03072 5.20795,7.03072 1.56238,0 3.38516,-0.2604 5.98913,-1.82278 0,0 11.19708,-6.77033 16.92581,-12.23866 l 0,-0.2604 c -1.30199,3.90595 -1.56239,6.24953 -1.56239,9.1139 0,0 0.26041,5.72873 5.72874,5.72873 0,-0.26039 4.42677,1.30197 19.52978,-11.71787 0,0 1.82278,-2.08317 1.82278,-3.12476 0,-0.2604 -0.2604,-0.52079 -0.52079,-0.52079 -2.08318,0 -15.88423,11.97826 -20.31098,11.97826 -0.78119,0 -2.08317,-0.2604 -2.08317,-2.34357 0,-2.08318 0.78121,-8.33274 23.17534,-38.53877 m -40.10115,36.19519 c -4.94754,3.12476 -7.29112,3.90596 -8.07231,3.64556 -0.78119,-0.26039 -0.78119,-1.30198 -0.78119,-1.82278 0,-7.5515 10.93668,-19.00898 10.93668,-19.00898 3.12476,-3.38516 14.84263,-16.92581 19.26938,-16.92581 2.60397,0 2.86437,3.64556 2.86437,5.98913 0,12.49905 -23.17534,27.34169 -24.21693,28.12288"
           id="path12284"
           style="font-style:italic;fill:#000000;font-family:Dragon is Coming;-inkscape-font-specification:Dragon is Coming Bold Italic" />
        <path
           d="m 967.05958,514.249 c 0,0.2604 -16.40502,11.71787 -18.74859,11.71787 -1.04159,0 -2.08318,-0.2604 -2.08318,-3.90596 0,-0.78119 0.52082,-6.24955 20.05058,-33.07042 0.26039,-0.2604 0.52079,-1.30199 0.52079,-2.60397 0,-3.38516 -1.56239,-7.03072 -10.41588,-4.94755 -10.15548,4.16635 -18.4882,10.67629 -25.77931,18.48819 3.64555,-5.20793 11.45747,-14.06144 11.45747,-17.4466 0,-0.78119 -0.2604,-1.56238 -1.30199,-1.56238 -9.11388,0 -19.00899,18.48821 -26.82089,38.01797 -1.04159,2.60397 -1.30199,4.68715 -1.30199,6.50993 0,2.08317 0.5208,3.38516 1.30199,3.38516 2.08317,0 2.86437,-3.90596 6.50992,-9.89509 8.5931,-14.06143 21.61297,-28.38329 36.71599,-34.11202 0.78119,-0.26039 1.56238,-0.52079 2.34357,-0.52079 0.5208,0.78119 -0.78119,2.60397 -2.34357,4.68715 -9.11389,13.80103 -15.36343,24.21693 -15.36343,32.81003 0,5.20793 3.12477,7.55151 5.98913,7.55151 -0.52079,0 2.34359,1.56237 19.26939,-11.71787 0,0 1.82278,-2.08317 1.82278,-3.12476 0,-0.2604 -0.2604,-0.52079 -0.5208,-0.52079 -0.26039,0 -0.78119,0 -1.30198,0.26039"
           id="path12286"
           style="font-style:italic;fill:#000000;font-family:Dragon is Coming;-inkscape-font-specification:Dragon is Coming Bold Italic" />
        <path
           d="m 1011.9781,447.84775 c -1.302,0 -50.51705,55.4646 -50.51705,79.42111 0,0.78119 10e-6,1.82277 1.82278,1.82277 0.78119,0 1.56239,-0.26039 2.08318,-1.56238 0,0 10e-6,-3.12478 7.81191,-16.14462 3.38516,-4.42674 8.07232,-6.24953 13.28025,-8.3327 0.2604,1.30198 0.2604,3.12477 0.2604,5.46834 0,12.49904 -1.04158,20.05057 8.07231,20.57136 5.20793,0.2604 19.00902,-12.23866 19.00902,-14.58223 0,-0.2604 -0.2604,-0.52079 -0.7812,-0.52079 -0.2604,0 -0.5208,0 -1.0416,0.26039 0,0.78119 -12.75948,11.97827 -16.40503,11.71787 -1.56238,0 -3.12477,-0.2604 -3.12477,-3.90596 0,-0.26039 10e-6,-1.82279 1.56239,-13.54064 0,-0.78119 -0.2604,-4.94755 -3.64556,-6.77033 3.12476,-1.04158 19.52977,-2.60398 19.52977,-16.40501 0,-3.38516 -3.906,-6.50993 -6.5099,-3.90596 -0.7812,1.30199 0.5208,2.60397 0.2604,4.16636 -3.90597,11.45745 -13.80108,11.19708 -25.25854,17.4466 7.03072,-10.93667 17.96742,-26.03973 34.63284,-47.39227 0.7812,-1.04158 1.302,-2.60397 1.302,-3.90595 0,-2.08318 -0.7812,-3.64556 -2.3436,-3.90596"
           id="path12288"
           style="font-style:italic;fill:#000000;font-family:Dragon is Coming;-inkscape-font-specification:Dragon is Coming Bold Italic" />
        <path
           d="m 1027.5693,497.0628 c 4.4268,-5.98913 9.114,-12.23867 13.2803,-17.707 l 2.604,0 c 1.5624,0 3.6455,-0.7812 3.6455,-1.82278 0,-0.78119 -2.0831,-1.56239 -3.6455,-1.56239 8.8535,-11.45746 15.6238,-19.79017 15.6238,-19.79017 0,0 1.5624,-2.34358 1.5624,-4.68715 0,-1.04159 -0.7812,-3.38516 -2.604,-3.38516 -1.302,0 2.0832,-5.9891 -23.6961,27.86248 l -16.1446,0 c -0.7812,0 1.0415,0 0.5207,0.2604 -4.1663,-3.64555 -9.3742,-8.07231 -13.5406,-8.07231 -1.0416,0 -1.8228,0.2604 -1.8228,1.30199 0,4.68714 11.7179,8.8535 13.0199,9.63469 2.6039,3.90595 4.6871,8.07231 6.2495,12.49906 -12.7594,17.96738 -24.47732,37.23679 -24.47732,46.87147 0,0.2604 0,0.78119 0,1.04159 0,0 0.2604,5.72873 5.72872,5.72873 14.8426,0 24.2169,-29.16448 24.2169,-40.36154 0,-2.60397 0,-5.20795 -0.5208,-7.81191 m -23.6961,45.04869 c -0.7812,0 -1.5624,-0.5208 -1.5624,-2.08318 0,-5.72873 10.1555,-21.87337 22.1338,-38.79916 0,1.30198 0.2604,2.60397 0.2604,3.64556 0,9.89508 -9.6347,37.23678 -20.8318,37.23678 m 18.7486,-58.84974 c -0.7812,-1.30198 -1.0416,-2.60397 -2.0832,-3.90595 l 11.1971,0 c -2.3436,2.86436 -4.4267,5.98913 -6.7703,9.11389 -0.7812,-1.82277 -1.5624,-3.64556 -2.3436,-5.20794"
           id="path12290"
           style="font-style:italic;fill:#000000;font-family:Dragon is Coming;-inkscape-font-specification:Dragon is Coming Bold Italic" />
        <path
           d="m 1078.3793,514.249 c 0,0.5208 -15.103,12.49906 -19.0089,11.71787 -0.7812,-0.2604 -2.0832,-0.2604 -2.0832,-2.34357 0,-2.08318 0.7812,-8.33274 22.9149,-38.53877 0.2604,-0.2604 1.0416,-1.56238 1.0416,-2.60397 0,-1.04159 -0.5208,-1.56238 -1.8228,-1.56238 -10.4158,0 -23.1753,27.3417 -25.5189,35.414 -5.9891,3.64555 -16.9258,9.63469 -18.2278,9.63469 -0.7812,0 -2.0832,-0.2604 -2.0832,-2.08318 0,-0.52079 0,-1.04159 0.2604,-1.82278 0,0 1.8228,-8.33273 22.6546,-36.97638 0.2604,-0.2604 1.0416,-1.56238 1.0416,-2.60397 0,-1.04159 -0.5208,-1.56238 -1.8228,-1.56238 -13.2802,0 -26.3001,35.414 -26.3001,41.14273 0,0.5208 0,1.04159 0,1.56239 0,0 0.2604,5.72873 5.7287,5.72873 2.0832,0 3.906,-0.5208 17.9674,-9.1139 0,1.30199 -0.2604,2.34358 0,3.38517 0,0 0.2604,5.72873 5.7288,5.72873 0.5208,0 4.1663,0.52078 19.5297,-11.71787 0,0 1.8228,-2.08317 1.8228,-3.12476 0,-0.2604 -0.2604,-0.52079 -0.7812,-0.52079 -0.2604,0 -0.5208,0 -1.0416,0.26039"
           id="path12292"
           style="font-style:italic;fill:#000000;font-family:Dragon is Coming;-inkscape-font-specification:Dragon is Coming Bold Italic" />
        <path
           d="m 1117.8905,485.86572 c -0.7812,5.46834 -4.4267,10.93668 -5.2079,12.75946 -0.5208,1.30198 -1.0416,4.68715 1.302,4.68715 1.3019,0 8.0723,-2.86438 8.0723,-14.84264 0,-5.20793 -2.3436,-7.55151 -5.4684,-7.55151 -6.7703,0 -17.4466,10.41589 -22.3941,15.62382 2.8643,-4.42674 9.1139,-11.19708 9.1139,-14.32184 0,-0.78119 -0.5208,-1.04159 -1.302,-1.30198 -8.5931,-1.56238 -17.707,18.48821 -26.8209,38.01797 -1.302,2.60397 -1.302,4.94755 -1.302,6.50993 0,2.08317 0.5208,3.38516 1.302,3.38516 1.8228,0 2.3436,-3.12477 6.2495,-9.63469 7.8119,-13.28024 19.009,-26.56051 32.2893,-33.85162 1.3019,-0.78119 4.1663,-1.56238 4.1663,0.52079"
           id="path12294"
           style="font-style:italic;fill:#000000;font-family:Dragon is Coming;-inkscape-font-specification:Dragon is Coming Bold Italic" />
        <path
           d="m 1162.2719,447.84775 c -1.0416,0 -4.6871,3.12479 -23.6961,28.12288 l -13.801,0 c -1.5624,0 -3.3852,10e-6 -3.3852,1.56239 0,1.82277 1.8228,1.82278 3.3852,1.82278 l 11.197,0 c -12.499,16.66539 -22.3941,33.85162 -22.3941,44.2675 0,0 -0.5208,5.72873 5.7287,5.72873 0.5208,0 3.906,1.82277 19.2694,-11.71787 0,0 1.8228,-1.56238 1.8228,-3.12476 0,-0.2604 -0.2604,-0.52079 -0.5208,-0.52079 -0.2604,0 -0.7812,0 -1.302,0.26039 0,0.5208 -13.8011,12.23866 -18.7486,11.71787 -0.7812,0 -2.0832,-0.2604 -2.0832,-2.08318 0,-2.34357 0.7812,-8.85353 27.3417,-44.52789 l 4.4268,0 c 1.302,0 3.6455,-10e-6 3.6455,-1.82278 0,-1.56238 -2.3435,-1.56239 -3.6455,-1.56239 l -1.8228,0 16.1446,-19.79017 c 0,0 1.302,-2.08318 1.302,-4.42675 0,-2.08318 -1.0416,-3.90596 -2.8644,-3.90596"
           id="path12296"
           style="font-style:italic;fill:#000000;font-family:Dragon is Coming;-inkscape-font-specification:Dragon is Coming Bold Italic" />
      </g>
      <g
         transform="matrix(0.99985133,-0.01724308,0.01724308,0.99985133,0,0)"
         id="text6845"
         style="font-size:84.21122742px;font-style:normal;font-variant:normal;font-weight:bold;font-stretch:normal;line-height:125%;letter-spacing:0px;word-spacing:0px;fill:#000000;fill-opacity:1;stroke:none;font-family:Ubuntu;-inkscape-font-specification:Sans Bold">
        <path
           d="m 991.90591,155.53126 c 3.53687,1.43158 6.40006,2.35791 9.76849,3.70529 0.9263,0.42106 3.0316,1.60001 3.0316,3.53687 0.084,4.29477 -7.24215,4.63162 -7.57899,5.2211 0.0842,0.84211 0.58948,2.44212 1.09475,2.77897 5.47374,-1.60001 9.51584,-3.36846 9.51584,-7.74744 0,-5.72635 -7.6632,-7.15795 -13.89483,-9.93692 -0.33684,-0.58948 -0.84211,-0.92632 -1.34738,-0.92632 l -7.83164,-0.0842 c -0.7579,0 -1.34738,0.33684 -1.34738,0.7579 l 1.43159,5.22109 c -0.25263,0.0842 -0.33685,0.25264 -0.33685,0.50527 l 0.92633,3.36845 -51.87412,-0.7579 -2.2737,-6.82111 c -0.0842,-0.25264 -0.92633,-0.7579 -1.68423,-0.92633 1.43159,0.0842 3.7053,0.16843 4.4632,0.16843 0.92632,0 2.69476,-1.01054 4.21056,-1.34738 0.33684,0.0842 0.67369,0.16842 0.92632,0.16842 0.7579,0 3.03161,-1.34738 3.03161,-1.76844 0,-0.67368 -1.76844,-1.68422 -4.63162,-2.02107 -2.61054,-0.33684 -6.56848,-0.42105 -9.85271,-0.84211 -5.13688,-0.58948 -9.01061,-1.68422 -10.86325,-1.68422 -0.67369,0 -1.68423,0.42105 -1.68423,0.7579 0,0.33684 0.67369,0.58948 0.92633,0.84211 0,1.01053 0.7579,1.17896 1.68422,1.76844 0,1.43159 0.84212,3.20002 2.18949,3.28423 l 6.40006,0.50527 c 0,0.50527 0.0842,1.34738 0.50526,1.43159 0.25264,0.67369 0.42106,1.26317 1.01054,1.26317 l 0.58948,0 c 0.25263,0 0.42105,-0.16842 0.58948,-0.58948 l 2.35791,8.00007 -7.57901,13.72643 c -4.21056,-2.02107 -9.6843,-3.70529 -14.90539,-3.70529 -18.61066,0 -31.83184,14.56855 -31.83184,31.15815 0,16.50538 12.80013,32.58974 32.67396,32.58974 11.28429,0 22.90545,-6.7369 28.29497,-17.76856 l 6.65268,2.02107 -0.42105,2.10528 -2.02107,0.33684 c -0.33685,0.0842 -0.33685,1.43159 -0.33685,1.76844 0,0.33684 0.0842,1.60001 0.33685,1.60001 l 0.7579,0 c 0.33684,0.92632 0.92632,1.26317 1.68422,1.26317 0.75791,0 1.51581,-0.33685 1.68423,-1.26317 l 1.17896,-0.33685 c 0.25263,-0.0842 0.25263,-1.17895 0.25263,-1.68422 0,-0.50527 -0.0842,-1.5158 -0.25263,-1.5158 l -0.92633,-0.0842 0.25264,-1.60002 c 0.58947,0.0842 0.92632,0.0842 1.26317,0.0842 4.04213,0 8.2527,-4.04214 8.2527,-8.50533 0,-1.76843 -0.42106,-3.95793 -2.1895,-5.81057 l 34.10555,-35.03187 0.7579,2.69476 c 0.0842,0.25263 0.33685,0.25263 0.67369,0.33684 l 0.50527,1.93686 c -10.18955,5.05267 -17.85278,17.09489 -17.85278,28.21076 0,18.69487 14.31593,32.58974 33.01079,32.58974 17.0107,0 32.1687,-14.48434 32.1687,-32.08447 0,-18.69488 -15.0738,-32.2529 -31.6634,-32.2529 -4.379,0 -9.17905,0.58948 -13.38961,2.61054 l -0.50527,-1.43159 c 0.16843,-0.25263 0.16843,-0.33684 0.16843,-0.58947 l -4.80004,-16.84225 c -0.0842,-0.16842 -0.25264,-0.42106 -0.67369,-0.42106 L 985.8427,155.026 c 0,-0.50527 0.75791,-0.7579 1.17896,-0.7579 0.50527,0 1.09475,0.0842 1.60002,0.0842 0.25263,0 0.50526,-0.0842 0.67369,-0.25264 l 0.42105,0.50527 c -0.25263,0.25264 -0.42105,0.33685 -0.42105,0.58948 0,0.33685 0.84211,0.7579 1.17895,0.7579 0.50527,0 0.58948,-0.42105 1.43159,-0.42105 m 16.67379,51.28463 c 0,-2.10528 -1.6842,-3.7895 -3.7053,-3.7895 -0.421,0 -0.8421,0.0842 -1.1789,0.16842 -3.2842,-5.05267 -4.88427,-8.00007 -7.57903,-16.16856 l -2.18949,-6.73689 c 3.45266,-1.34738 7.15792,-2.1895 11.11592,-2.1895 15.7474,0 28.716,12.6317 28.716,28.37919 0,15.74748 -13.3054,28.29497 -28.716,28.29497 -16.08436,0 -28.80027,-12.54749 -28.80027,-28.29497 0,-10.77903 6.14742,-20.12649 15.0738,-25.01074 l 3.45267,9.93693 c 1.26316,3.62108 4.80004,8.2527 7.4106,12.71589 -0.6737,0.7579 -1.0948,1.68423 -1.0948,2.69476 0,2.02107 1.7685,3.7053 3.7895,3.7053 2.0211,0 3.7053,-1.68423 3.7053,-3.7053 m -99.53763,-29.64235 c 4.63161,0 9.0106,1.17896 12.88431,3.20003 l -11.78957,22.23176 c -0.42105,0 -0.7579,-0.0842 -1.09474,-0.0842 -2.35792,0 -3.87372,1.60002 -3.87372,3.53687 0,1.68422 1.26317,3.03161 2.77897,3.53687 l 26.35811,8.67376 c -4.5474,9.0948 -13.97907,15.15802 -25.26336,15.15802 -15.57907,0 -28.29498,-13.22118 -28.29498,-28.12655 0,-16.00012 12.21065,-28.12655 28.29498,-28.12655 m 43.11614,28.71603 c -0.50526,-0.50527 -1.01053,-0.67369 -1.68422,-0.92632 l 0.92632,-5.05268 1.60002,-0.16842 c 0.50526,-0.0842 0.67369,-0.92632 0.67369,-1.34738 0,-0.50527 0,-1.43159 -0.50527,-1.43159 l -1.01054,0 c -0.25263,-0.67369 -0.92632,-1.01054 -1.43159,-1.01054 -0.58947,0 -1.17895,0.25264 -1.5158,0.92633 l -1.60001,-0.16842 c -0.25264,0 -0.42106,1.01053 -0.42106,1.5158 0,0.42105 0,1.34738 0.25264,1.34738 l 1.60001,0.16842 -0.84211,4.71583 -1.76844,-0.16842 -12.0422,-40.00034 c 0,-0.16842 0,-0.58948 0.50526,-0.58948 l 51.28464,1.09475 1.26317,4.63162 -35.28451,36.46346 M 923.69482,181.3841 c 7.83164,4.71583 13.13695,13.05275 13.55801,22.65282 l -25.17916,-1.34738 c 3.70529,-7.32637 7.83165,-14.14749 11.62115,-21.30544 m 17.43172,22.82124 c -0.58947,-10.94744 -6.06321,-20.2107 -15.66329,-26.18969 l 6.48427,-12.54747 11.70536,38.82138 -2.52634,-0.0842 m -4.63161,8.08428 c -0.42106,1.85265 -1.01054,3.62109 -1.85265,5.2211 l -24.58968,-8.00007 c 0.42106,-0.25263 0.92632,-0.50527 1.17896,-0.84211 l 25.26337,3.62108 m 0.84211,-6.98953 c 0,1.43159 -0.0842,2.69476 -0.25264,3.95793 l -24.84231,-3.7053 c -0.0842,-0.58947 -0.25263,-1.34738 -0.67369,-1.93685 l 25.76864,1.34738 0,0.33684 m 17.60014,8.08428 c 0,0.84211 -0.16842,1.76844 -0.67369,2.61055 l -4.96846,-2.69476 4.04214,-4.4632 c 1.09475,1.5158 1.60001,2.9474 1.60001,4.54741 M 937.00019,151.9944 c -1.01053,0.33685 -2.44212,1.01054 -3.0316,1.01054 -0.92632,0 -3.03161,-0.25264 -4.4632,-0.33685 l -0.16842,-0.67369 c 0,-0.25263 -0.42105,-0.33684 -0.67369,-0.33684 -0.0842,-0.16842 -0.50527,-0.25263 -0.67369,-0.25263 -0.16842,0 -0.50527,0.0842 -0.58948,0.25263 -0.50526,0 -0.92632,0 -0.92632,0.16842 l -0.0842,0.67369 -5.64215,-0.33684 c -1.09475,-0.0842 -1.51581,-1.34738 -1.51581,-2.44213 1.01054,0.25263 2.44213,1.85265 3.20003,1.85265 1.26317,0 2.44213,-0.92633 3.78951,-0.92633 0.7579,0 2.44212,0.67369 3.11581,0.67369 1.09475,0 2.10528,-0.16842 3.11582,-0.16842 1.34738,0 3.36845,0.50527 4.5474,0.84211 m 16.33698,65.51634 c -1.17895,2.02107 -3.20003,3.20003 -5.30531,3.20003 -0.25263,0 -0.58947,0 -0.84211,-0.0842 l 1.09475,-5.55794 5.05267,2.44213 m -8.50533,2.61055 c -1.76844,-0.58948 -3.87372,-2.1895 -4.54741,-5.05268 l 5.64215,-0.50526 -1.09474,5.55794 m 0.33684,-9.34745 -4.29477,-0.92632 c 0.84211,-1.26317 1.60001,-2.10528 3.20003,-3.03161 l 1.09474,3.95793 m -5.55794,4.88425 c 0.50527,2.18949 1.5158,3.20003 2.86318,4.29477 l -4.12635,-1.34738 c 0.42106,-0.7579 0.92633,-2.10528 1.26317,-2.94739 m 4.37898,-9.85271 c -1.26316,0.50526 -2.10528,1.17896 -3.0316,2.2737 0.16842,-1.26317 0.16842,-2.52634 0.16842,-3.0316 l 2.69476,0.0842 0.16842,0.67369 m 5.89479,2.77897 0.33685,-2.10528 c 0.33684,0 0.67369,0.25263 0.92632,0.50527 l -1.26317,1.60001 m -2.44212,-0.67369 -0.42106,-1.85265 c 0.25263,-0.0842 0.50527,-0.0842 0.7579,-0.0842 l -0.33684,1.93686"
           id="path12277"
           style="font-weight:normal;fill:#000000;font-family:BIKES;-inkscape-font-specification:BIKES" />
      </g>
      <g
         transform="matrix(0.98980313,0.14244217,-0.14244217,0.98980313,0,0)"
         id="text6849"
         style="font-size:84.21123505px;font-style:normal;font-variant:normal;font-weight:bold;font-stretch:normal;line-height:125%;letter-spacing:0px;word-spacing:0px;fill:#000000;fill-opacity:1;stroke:none;font-family:Ubuntu;-inkscape-font-specification:Sans Bold">
        <path
           d="m 1200.5565,-7.3418293 c 3.5369,1.4315896 6.4001,2.3579159 9.7685,3.7052943 0.9263,0.4210558 3.0316,1.6000154 3.0316,3.53687191 0.084,4.29476869 -7.2422,4.63161849 -7.579,5.22109659 0.084,0.8421115 0.5895,2.4421261 1.0947,2.7789707 5.4738,-1.6000118 9.5159,-3.3684537 9.5159,-7.74743358 0,-5.72635822 -7.6632,-7.15795772 -13.8948,-9.93692572 -0.3369,-0.5894779 -0.8422,-0.9263239 -1.3474,-0.9263239 l -7.8317,-0.08421 c -0.7579,0 -1.3473,0.336845 -1.3473,0.757901 l 1.4315,5.2210968 c -0.2526,0.084211 -0.3368,0.2526339 -0.3368,0.5052674 l 0.9263,3.36844936 -51.8741,-0.75790116 -2.2737,-6.82111 c -0.084,-0.2526334 -0.9263,-0.7579013 -1.6842,-0.9263236 1.4316,0.084211 3.7053,0.1684225 4.4632,0.1684225 0.9263,0 2.6947,-1.0105353 4.2105,-1.3473793 0.3369,0.08421 0.6737,0.168422 0.9264,0.168422 0.7579,0 3.0316,-1.34738 3.0316,-1.768436 0,-0.673689 -1.7685,-1.684225 -4.6317,-2.02107 -2.6105,-0.336844 -6.5684,-0.421056 -9.8527,-0.842112 -5.1369,-0.589478 -9.0106,-1.684225 -10.8632,-1.684225 -0.6737,0 -1.6842,0.421057 -1.6842,0.757901 0,0.336845 0.6736,0.589479 0.9263,0.842113 0,1.010534 0.7579,1.178958 1.6842,1.768436 0,1.431589 0.8421,3.200027 2.1895,3.284238 l 6.4,0.5052674 c 0,0.5052669 0.084,1.3473798 0.5053,1.4315909 0.2526,0.6736893 0.4211,1.2631686 1.0105,1.2631686 l 0.5895,0 c 0.2527,0 0.4211,-0.1684229 0.5895,-0.5894787 l 2.3579,8.00006736 -7.579,13.72643144 c -4.2105,-2.021068 -9.6843,-3.705294 -14.9054,-3.705294 -18.6106,0 -31.8318,14.56856 -31.8318,31.158156 0,16.505386 12.8001,32.589748 32.6739,32.589748 11.2843,0 22.9055,-6.736909 28.295,-17.76857 l 6.6527,2.02107 -0.4211,2.10528 -2.021,0.336845 c -0.3369,0.08421 -0.3369,1.431592 -0.3369,1.768436 0,0.336845 0.084,1.600014 0.3369,1.600014 l 0.7579,0 c 0.3368,0.926322 0.9263,1.263168 1.6842,1.263168 0.7579,0 1.5158,-0.336846 1.6842,-1.263168 l 1.179,-0.336845 c 0.2526,-0.08421 0.2526,-1.178958 0.2526,-1.684225 0,-0.505267 -0.084,-1.515802 -0.2526,-1.515802 l -0.9263,-0.08421 0.2526,-1.600014 c 0.5895,0.08421 0.9263,0.08421 1.2632,0.08421 4.0421,0 8.2527,-4.042143 8.2527,-8.505334 0,-1.768435 -0.4211,-3.95793 -2.1895,-5.810576 l 34.1055,-35.0318734 0.7579,2.6947594 c 0.084,0.252634 0.3369,0.252634 0.6737,0.336845 l 0.5053,1.936859 c -10.1896,5.052669 -17.8528,17.094891 -17.8528,28.210763 0,18.694876 14.3159,32.589748 33.0108,32.589748 17.0106,0 32.1687,-14.48435 32.1687,-32.08448 0,-18.694876 -15.0738,-32.252903 -31.6634,-32.252903 -4.379,0 -9.1791,0.58948 -13.3896,2.610548 l -0.5053,-1.431591 c 0.1684,-0.252634 0.1684,-0.336845 0.1684,-0.589479 l -4.8,-16.8422467 c -0.084,-0.1684223 -0.2526,-0.4210562 -0.6737,-0.4210562 l -0.8421,-2.4421258 c 0,-0.5052669 0.7579,-0.7579011 1.1789,-0.7579011 0.5053,0 1.0948,0.084211 1.6001,0.084211 0.2526,0 0.5052,-0.084211 0.6736,-0.2526337 l 0.4211,0.5052674 c -0.2526,0.2526335 -0.4211,0.3368452 -0.4211,0.5894787 0,0.3368446 0.8422,0.7579011 1.179,0.7579011 0.5053,0 0.5895,-0.4210562 1.4316,-0.4210562 m 16.6738,51.2846425 c 0,-2.105279 -1.6842,-3.789506 -3.7053,-3.789506 -0.421,0 -0.8421,0.08421 -1.1789,0.168423 -3.2843,-5.052669 -4.8843,-8.000076 -7.579,-16.168557 l -2.1895,-6.736899 c 3.4526,-1.347379 7.1579,-2.189492 11.1159,-2.189492 15.7474,0 28.716,12.631701 28.716,28.379186 0,15.747485 -13.3054,28.294975 -28.716,28.294975 -16.0844,0 -28.8003,-12.54749 -28.8003,-28.294975 0,-10.779027 6.1474,-20.12649 15.0738,-25.010737 l 3.4527,9.936926 c 1.2631,3.621079 4.8,8.252705 7.4106,12.715896 -0.6737,0.757901 -1.0948,1.684226 -1.0948,2.69476 0,2.021067 1.7685,3.705294 3.7895,3.705294 2.0211,0 3.7053,-1.684227 3.7053,-3.705294 m -99.5377,-29.642355 c 4.6317,0 9.0106,1.178959 12.8844,3.200027 l -11.7896,22.231766 c -0.4211,0 -0.7579,-0.08421 -1.0948,-0.08421 -2.3579,0 -3.8737,1.600015 -3.8737,3.536872 0,1.684223 1.2632,3.031605 2.779,3.536872 l 26.3581,8.673757 c -4.5474,9.094804 -13.9791,15.158022 -25.2634,15.158022 -15.579,0 -28.2949,-13.221179 -28.2949,-28.126552 0,-16.000119 12.2106,-28.126553 28.2949,-28.126553 m 43.1162,28.716031 c -0.5053,-0.505267 -1.0105,-0.67369 -1.6842,-0.926323 l 0.9263,-5.052674 1.6,-0.168423 c 0.5053,-0.08421 0.6737,-0.926324 0.6737,-1.34738 0,-0.505267 0,-1.431591 -0.5053,-1.431591 l -1.0105,0 c -0.2526,-0.673689 -0.9263,-1.010534 -1.4316,-1.010534 -0.5895,0 -1.179,0.252634 -1.5158,0.926323 l -1.6,-0.168422 c -0.2526,0 -0.4211,1.010535 -0.4211,1.515802 0,0.421056 0,1.34738 0.2527,1.34738 l 1.6,0.168422 -0.8421,4.715829 -1.7685,-0.168422 -12.0422,-40.0003371 c 0,-0.1684223 0,-0.5894786 0.5053,-0.5894786 l 51.2846,1.0947461 1.2632,4.6316179 -35.2845,36.4634647 M 1132.3454,18.51102 c 7.8316,4.715824 13.137,13.052751 13.558,22.652822 l -25.1792,-1.34738 c 3.7053,-7.32637 7.8317,-14.147494 11.6212,-21.305442 m 17.4317,22.821245 c -0.5895,-10.94745 -6.0632,-20.210703 -15.6633,-26.189695 l 6.4843,-12.5474736 11.7054,38.8213796 -2.5264,-0.08421 m -4.6316,8.084278 c -0.4211,1.852645 -1.0105,3.621085 -1.8526,5.221097 l -24.5897,-8.000068 c 0.421,-0.252633 0.9263,-0.505267 1.1789,-0.842112 l 25.2634,3.621083 m 0.8421,-6.989532 c 0,1.431589 -0.084,2.69476 -0.2526,3.957928 l -24.8423,-3.705295 c -0.084,-0.589478 -0.2527,-1.34738 -0.6737,-1.936858 l 25.7686,1.34738 0,0.336845 m 17.6002,8.084278 c 0,0.842112 -0.1685,1.768437 -0.6737,2.610548 l -4.9685,-2.694759 4.0422,-4.463196 c 1.0947,1.515801 1.6,2.947395 1.6,4.547407 m -17.937,-61.38999 c -1.0106,0.336844 -2.4422,1.0105346 -3.0316,1.0105346 -0.9264,0 -3.0316,-0.2526336 -4.4632,-0.3368446 l -0.1684,-0.67369 c 0,-0.252634 -0.4211,-0.336845 -0.6737,-0.336845 -0.084,-0.168422 -0.5053,-0.252634 -0.6737,-0.252634 -0.1685,0 -0.5053,0.08421 -0.5895,0.252634 -0.5053,0 -0.9263,0 -0.9263,0.168422 l -0.084,0.67369 -5.6422,-0.336845 c -1.0947,-0.08421 -1.5158,-1.347381 -1.5158,-2.442126 1.0105,0.252634 2.4421,1.852648 3.2,1.852648 1.2632,0 2.4422,-0.926324 3.7895,-0.926324 0.7579,0 2.4422,0.67369 3.1159,0.67369 1.0947,0 2.1052,-0.168423 3.1158,-0.168423 1.3473,0 3.3684,0.505268 4.5474,0.842113 m 16.337,65.516341 c -1.179,2.021067 -3.2001,3.200027 -5.3054,3.200027 -0.2526,0 -0.5894,0 -0.8421,-0.08421 l 1.0948,-5.557941 5.0527,2.442126 m -8.5054,2.610548 c -1.7684,-0.589478 -3.8737,-2.189495 -4.5474,-5.052674 l 5.6422,-0.505268 -1.0948,5.557942 m 0.3369,-9.347447 -4.2948,-0.926324 c 0.8421,-1.263167 1.6,-2.105281 3.2,-3.031604 l 1.0948,3.957928 m -5.558,4.884252 c 0.5053,2.189489 1.5158,3.200028 2.8632,4.294773 l -4.1263,-1.34738 c 0.421,-0.757901 0.9263,-2.105282 1.2631,-2.947393 m 4.379,-9.852715 c -1.2632,0.505267 -2.1053,1.178958 -3.0316,2.273703 0.1684,-1.263167 0.1684,-2.526337 0.1684,-3.031604 l 2.6948,0.08421 0.1684,0.67369 m 5.8948,2.778971 0.3368,-2.105281 c 0.3369,0 0.6737,0.252634 0.9264,0.505267 l -1.2632,1.600014 m -2.4421,-0.67369 -0.4211,-1.852647 c 0.2526,-0.08421 0.5053,-0.08421 0.7579,-0.08421 l -0.3368,1.936859"
           id="path12274"
           style="font-weight:normal;fill:#000000;font-family:BIKES;-inkscape-font-specification:BIKES" />
      </g>
      <g
         transform="matrix(0.98558464,-0.16918306,0.16918306,0.98558464,0,0)"
         id="text6853"
         style="font-size:84.21123505px;font-style:normal;font-variant:normal;font-weight:bold;font-stretch:normal;line-height:125%;letter-spacing:0px;word-spacing:0px;fill:#000000;fill-opacity:1;stroke:none;font-family:Ubuntu;-inkscape-font-specification:Sans Bold">
        <path
           d="m 761.35069,286.95651 c 3.53687,1.43159 6.40005,2.35792 9.7685,3.70529 0.92632,0.42106 3.03161,1.60002 3.03161,3.53688 0.0842,4.29477 -7.24217,4.63162 -7.57902,5.22109 0.0842,0.84211 0.58948,2.44213 1.09475,2.77897 5.47372,-1.60001 9.51587,-3.36845 9.51587,-7.74743 0,-5.72636 -7.66323,-7.15796 -13.89485,-9.93693 -0.33685,-0.58947 -0.84212,-0.92632 -1.34738,-0.92632 l -7.83165,-0.0842 c -0.7579,0 -1.34738,0.33685 -1.34738,0.7579 l 1.43159,5.2211 c -0.25263,0.0842 -0.33684,0.25263 -0.33684,0.50527 l 0.92632,3.36844 -51.87412,-0.7579 -2.2737,-6.82111 c -0.0842,-0.25263 -0.92633,-0.7579 -1.68423,-0.92632 1.43159,0.0842 3.7053,0.16842 4.4632,0.16842 0.92632,0 2.69476,-1.01053 4.21056,-1.34738 0.33684,0.0842 0.67369,0.16842 0.92632,0.16842 0.7579,0 3.03161,-1.34738 3.03161,-1.76843 0,-0.67369 -1.76844,-1.68423 -4.63162,-2.02107 -2.61055,-0.33685 -6.56848,-0.42106 -9.85272,-0.84211 -5.13688,-0.58948 -9.0106,-1.68423 -10.86324,-1.68423 -0.67369,0 -1.68423,0.42106 -1.68423,0.7579 0,0.33685 0.67369,0.58948 0.92632,0.84212 0,1.01053 0.75791,1.17895 1.68423,1.76843 0,1.43159 0.84211,3.20003 2.18949,3.28424 l 6.40006,0.50527 c 0,0.50526 0.0842,1.34738 0.50526,1.43159 0.25264,0.67369 0.42106,1.26317 1.01054,1.26317 l 0.58948,0 c 0.25263,0 0.42105,-0.16843 0.58947,-0.58948 l 2.35792,8.00007 -7.57901,13.72643 c -4.21056,-2.02107 -9.6843,-3.7053 -14.90539,-3.7053 -18.61066,0 -31.83185,14.56856 -31.83185,31.15816 0,16.50538 12.80013,32.58975 32.67396,32.58975 11.2843,0 22.90546,-6.73691 28.29498,-17.76857 l 6.65268,2.02107 -0.42105,2.10528 -2.02107,0.33684 c -0.33685,0.0842 -0.33685,1.43159 -0.33685,1.76844 0,0.33684 0.0842,1.60001 0.33685,1.60001 l 0.7579,0 c 0.33684,0.92632 0.92632,1.26317 1.68422,1.26317 0.7579,0 1.51581,-0.33685 1.68423,-1.26317 l 1.17896,-0.33684 c 0.25263,-0.0842 0.25263,-1.17896 0.25263,-1.68423 0,-0.50526 -0.0842,-1.5158 -0.25263,-1.5158 l -0.92633,-0.0842 0.25264,-1.60002 c 0.58947,0.0842 0.92632,0.0842 1.26317,0.0842 4.04213,0 8.2527,-4.04215 8.2527,-8.50534 0,-1.76843 -0.42106,-3.95793 -2.1895,-5.81057 l 34.10555,-35.03188 0.75791,2.69476 c 0.0842,0.25264 0.33684,0.25264 0.67369,0.33685 l 0.50526,1.93686 c -10.18955,5.05266 -17.85278,17.09489 -17.85278,28.21076 0,18.69487 14.31593,32.58975 33.0108,32.58975 17.01066,0 32.1687,-14.48435 32.1687,-32.08448 0,-18.69488 -15.07383,-32.25291 -31.66343,-32.25291 -4.37898,0 -9.17903,0.58948 -13.38958,2.61055 l -0.50527,-1.43159 c 0.16842,-0.25263 0.16842,-0.33684 0.16842,-0.58948 l -4.80004,-16.84224 c -0.0842,-0.16843 -0.25263,-0.42106 -0.67369,-0.42106 l -0.84211,-2.44213 c 0,-0.50526 0.7579,-0.7579 1.17896,-0.7579 0.50526,0 1.09474,0.0842 1.60001,0.0842 0.25263,0 0.50527,-0.0842 0.67369,-0.25263 l 0.42106,0.50527 c -0.25264,0.25263 -0.42106,0.33684 -0.42106,0.58948 0,0.33684 0.84211,0.7579 1.17896,0.7579 0.50526,0 0.58948,-0.42106 1.43159,-0.42106 m 16.67382,51.28464 c 0,-2.10528 -1.68422,-3.7895 -3.70529,-3.7895 -0.42106,0 -0.84212,0.0842 -1.17896,0.16842 -3.28423,-5.05267 -4.88425,-8.00008 -7.57901,-16.16856 l -2.18949,-6.7369 c 3.45265,-1.34737 7.15796,-2.18949 11.11588,-2.18949 15.74749,0 28.71603,12.6317 28.71603,28.37919 0,15.74748 -13.30539,28.29497 -28.71603,28.29497 -16.08433,0 -28.80024,-12.54749 -28.80024,-28.29497 0,-10.77903 6.14743,-20.12649 15.07381,-25.01074 l 3.45266,9.93693 c 1.26317,3.62108 4.80004,8.2527 7.41059,12.71589 -0.67369,0.7579 -1.09475,1.68423 -1.09475,2.69476 0,2.02107 1.76844,3.7053 3.78951,3.7053 2.02107,0 3.70529,-1.68423 3.70529,-3.7053 M 678.48683,308.5988 c 4.63162,0 9.01061,1.17896 12.88432,3.20002 l -11.78957,22.23177 c -0.42106,0 -0.7579,-0.0842 -1.09475,-0.0842 -2.35791,0 -3.87371,1.60002 -3.87371,3.53687 0,1.68422 1.26317,3.03161 2.77897,3.53687 l 26.35811,8.67376 c -4.5474,9.0948 -13.97907,15.15802 -25.26337,15.15802 -15.57906,0 -28.29497,-13.22118 -28.29497,-28.12655 0,-16.00012 12.21064,-28.12655 28.29497,-28.12655 m 43.11615,28.71603 c -0.50526,-0.50527 -1.01053,-0.67369 -1.68422,-0.92632 l 0.92632,-5.05268 1.60002,-0.16842 c 0.50526,-0.0842 0.67369,-0.92633 0.67369,-1.34738 0,-0.50527 0,-1.43159 -0.50527,-1.43159 l -1.01054,0 c -0.25263,-0.67369 -0.92632,-1.01054 -1.43159,-1.01054 -0.58947,0 -1.17895,0.25264 -1.5158,0.92633 l -1.60001,-0.16843 c -0.25264,0 -0.42106,1.01054 -0.42106,1.51581 0,0.42105 0,1.34738 0.25264,1.34738 l 1.60001,0.16842 -0.84211,4.71583 -1.76844,-0.16842 -12.04221,-40.00034 c 0,-0.16842 0,-0.58948 0.50527,-0.58948 l 51.28464,1.09475 1.26317,4.63161 -35.28451,36.46347 m -28.46339,-24.50547 c 7.83163,4.71582 13.13695,13.05275 13.55801,22.65282 l -25.17916,-1.34738 c 3.70529,-7.32637 7.83165,-14.14749 11.62115,-21.30544 m 17.43172,22.82124 c -0.58948,-10.94745 -6.06322,-20.2107 -15.66329,-26.18969 l 6.48427,-12.54747 11.70536,38.82138 -2.52634,-0.0842 m -4.63162,8.08428 c -0.42105,1.85265 -1.01053,3.62109 -1.85264,5.2211 l -24.58968,-8.00007 c 0.42105,-0.25263 0.92632,-0.50527 1.17895,-0.84211 l 25.26337,3.62108 m 0.84212,-6.98953 c 0,1.43159 -0.0842,2.69476 -0.25264,3.95793 l -24.84231,-3.7053 c -0.0842,-0.58947 -0.25264,-1.34738 -0.67369,-1.93685 l 25.76864,1.34738 0,0.33684 m 17.60015,8.08428 c 0,0.84211 -0.16843,1.76844 -0.67369,2.61055 l -4.96847,-2.69476 4.04214,-4.4632 c 1.09475,1.5158 1.60002,2.9474 1.60002,4.54741 m -17.937,-61.38999 c -1.01053,0.33684 -2.44212,1.01053 -3.0316,1.01053 -0.92633,0 -3.03161,-0.25263 -4.4632,-0.33684 l -0.16842,-0.67369 c 0,-0.25263 -0.42106,-0.33685 -0.67369,-0.33685 -0.0842,-0.16842 -0.50527,-0.25263 -0.67369,-0.25263 -0.16842,0 -0.50527,0.0842 -0.58948,0.25263 -0.50527,0 -0.92632,0 -0.92632,0.16843 l -0.0842,0.67369 -5.64216,-0.33685 c -1.09474,-0.0842 -1.5158,-1.34738 -1.5158,-2.44212 1.01054,0.25263 2.44213,1.85264 3.20003,1.85264 1.26317,0 2.44213,-0.92632 3.7895,-0.92632 0.7579,0 2.44213,0.67369 3.11582,0.67369 1.09474,0 2.10528,-0.16842 3.11582,-0.16842 1.34737,0 3.36845,0.50526 4.5474,0.84211 m 16.33698,65.51634 c -1.17895,2.02107 -3.20003,3.20003 -5.30531,3.20003 -0.25263,0 -0.58948,0 -0.84211,-0.0842 l 1.09475,-5.55795 5.05267,2.44213 m -8.50533,2.61055 c -1.76844,-0.58948 -3.87372,-2.1895 -4.54741,-5.05268 l 5.64215,-0.50526 -1.09474,5.55794 m 0.33684,-9.34745 -4.29477,-0.92632 c 0.84211,-1.26317 1.60001,-2.10528 3.20003,-3.03161 l 1.09474,3.95793 m -5.55794,4.88425 c 0.50527,2.18949 1.5158,3.20003 2.86318,4.29478 l -4.12635,-1.34738 c 0.42106,-0.7579 0.92633,-2.10529 1.26317,-2.9474 m 4.37898,-9.85271 c -1.26316,0.50526 -2.10528,1.17896 -3.0316,2.2737 0.16842,-1.26317 0.16842,-2.52634 0.16842,-3.0316 l 2.69476,0.0842 0.16842,0.67369 m 5.89479,2.77897 0.33685,-2.10528 c 0.33684,0 0.67369,0.25263 0.92632,0.50527 l -1.26317,1.60001 m -2.44212,-0.67369 -0.42106,-1.85265 c 0.25263,-0.0842 0.50527,-0.0842 0.7579,-0.0842 l -0.33684,1.93686"
           id="path12271"
           style="font-weight:normal;fill:#000000;font-family:BIKES;-inkscape-font-specification:BIKES" />
      </g>
      <g
         transform="matrix(4.6954064,0,0,4.6954064,-3854.3311,-2204.3818)"
         id="text6742"
         style="font-size:18.1919899px;font-style:normal;font-variant:normal;font-weight:bold;font-stretch:normal;line-height:125%;letter-spacing:0px;word-spacing:0px;fill:#ffffff;fill-opacity:1;stroke:none;font-family:Ubuntu;-inkscape-font-specification:Sans Bold">
        <path
           d="m 958.99743,555.81635 c 0.13877,0.47515 0.4314,0.83505 0.85629,1.086 0.44018,0.22304 0.901,0.27598 1.37615,0.13721 0.47515,-0.13877 0.83504,-0.4314 1.10759,-0.8626 0.22304,-0.44017 0.27598,-0.90099 0.13721,-1.37614 -0.13877,-0.47515 -0.43139,-0.83505 -0.86259,-1.1076 -0.46178,-0.21673 -0.9226,-0.26967 -1.39775,-0.1309 -0.47515,0.13877 -0.83504,0.43139 -1.08599,0.85628 -0.21674,0.46178 -0.26968,0.9226 -0.13091,1.39775"
           id="path7229"
           style="font-size:22.5px;font-weight:normal;fill:#ffffff;font-family:Blenda Script;-inkscape-font-specification:Blenda Script" />
        <path
           d="m 977.25858,548.87892 c -1.09173,3.97216 -6.86455,4.80222 -9.1927,2.47543 -2.3228,-2.30494 -1.79111,-7.62269 0.0414,-10.36288 0.7425,-1.03817 1.51546,-1.66689 2.23678,-1.84296 0.65575,-0.16006 1.222,0.0723 1.41459,0.76643 0.17658,0.62855 -0.13254,1.25986 -0.33236,1.86449 l 2.46411,2.40941 c 0.59466,-1.92851 0.56507,-3.47305 0.15114,-4.59952 -0.47312,-1.27415 -1.44039,-2.0108 -2.59578,-2.28464 -1.32973,-0.32392 -2.91954,-0.005 -4.37113,0.9743 -1.14455,0.71942 -2.1824,1.87601 -2.92215,3.39988 -1.71185,3.614 -1.5353,10.12535 2.0169,12.15337 3.94892,2.32492 11.14444,-0.17256 12.13842,-5.20941 l -1.0492,0.2561"
           id="path7231"
           style="font-size:22.5px;font-weight:normal;fill:#ffffff;font-family:Blenda Script;-inkscape-font-specification:Blenda Script" />
        <path
           d="m 979.76414,543.42696 0.008,-2.49758 -3.0288,0.57285 -0.14221,11.47634 3.11723,-0.58957 0.0296,-6.62339 c 0.78045,-2.04822 2.09448,-4.05996 4.13193,-3.09428 l 1.73409,-2.09119 c -3.22231,-1.17666 -4.8966,0.26205 -5.85036,2.84682"
           id="path7233"
           style="font-size:22.5px;font-weight:normal;fill:#ffffff;font-family:Blenda Script;-inkscape-font-specification:Blenda Script" />
        <path
           d="m 992.68765,546.18117 c -0.42415,2.29507 -3.43678,4.77969 -3.33187,2.03255 0.11169,-2.70265 0.27422,-5.07167 0.41325,-8.93923 l -3.06957,0.46769 -0.39373,7.2748 c -0.29669,6.4179 6.22422,4.1043 7.2494,-0.96798 l -0.86748,0.13217 m -4.22057,-7.98286 c 0.48935,-0.0746 0.88825,-0.29465 1.19331,-0.68252 0.30506,-0.38788 0.44425,-0.81876 0.3663,-1.33035 -0.0746,-0.48936 -0.31351,-0.86262 -0.72363,-1.16429 -0.38448,-0.28282 -0.78973,-0.40315 -1.30133,-0.3252 -0.51159,0.0779 -0.88486,0.3169 -1.18992,0.70477 -0.27942,0.40673 -0.37412,0.83083 -0.32181,1.32357 0.0779,0.5116 0.29466,0.88826 0.6569,1.17446 0.38448,0.28281 0.83083,0.37412 1.32018,0.29956"
           id="path7235"
           style="font-size:22.5px;font-weight:normal;fill:#ffffff;font-family:Blenda Script;-inkscape-font-specification:Blenda Script" />
        <path
           d="m 998.75316,545.49603 c -0.48624,2.28273 -3.41442,4.62058 -3.22669,1.94427 l 0.57145,-7.59913 1.40661,-0.17543 0.47762,-1.4427 -1.80848,0.22555 0.25218,-3.61399 -3.09247,1.02055 -0.24085,2.9777 -1.07169,0.13366 -0.38832,1.43156 1.33962,-0.16707 -0.45936,5.95261 c -0.48457,6.29586 5.94318,4.20179 7.13346,-0.79896 l -0.89308,0.11138"
           id="path7237"
           style="font-size:22.5px;font-weight:normal;fill:#ffffff;font-family:Blenda Script;-inkscape-font-specification:Blenda Script" />
        <path
           d="m 1005.2733,544.83312 c -0.547,2.26894 -3.6888,4.58798 -3.4364,1.85045 0.2569,-2.69274 0.5466,-5.04959 0.8934,-8.90408 l -3.09033,0.30196 -0.78433,7.24311 c -0.64135,6.39267 5.99456,4.43304 7.29096,-0.57678 l -0.8733,0.0853 m -3.7853,-8.19825 c 0.4927,-0.0481 0.9029,-0.24647 1.2283,-0.61738 0.3255,-0.37091 0.4877,-0.79368 0.4373,-1.30873 -0.048,-0.49265 -0.2666,-0.87823 -0.6599,-1.20151 -0.3688,-0.30308 -0.767,-0.44503 -1.282,-0.3947 -0.5151,0.0503 -0.9006,0.26886 -1.2261,0.63977 -0.30089,0.39111 -0.41826,0.80951 -0.39251,1.30435 0.0503,0.51505 0.24646,0.90281 0.59281,1.20808 0.3687,0.30308 0.8095,0.41826 1.3021,0.37012"
           id="path7239"
           style="font-size:22.5px;font-weight:normal;fill:#ffffff;font-family:Blenda Script;-inkscape-font-specification:Blenda Script" />
        <path
           d="m 1013.4943,544.40718 c -1.0064,1.46584 -2.5395,3.14753 -4.1981,2.62767 -1.0599,-0.33462 -1.7342,-1.64232 -1.553,-3.97724 0.1279,-1.45186 0.6551,-3.33649 1.8728,-4.34298 0.4697,-0.39241 0.9366,-0.49147 1.2181,-0.33 0.2814,0.16148 0.3971,0.87532 -0.053,1.89782 l 1.155,1.74893 c 0.1002,-0.18714 0.2018,-0.35184 0.2781,-0.55992 0.5889,-1.30246 0.2451,-3.06085 -0.9602,-3.88181 -0.828,-0.57573 -2.0014,-0.587 -3.158,-0.0131 -1.9646,0.96653 -3.0049,3.26904 -3.2865,5.45286 -0.4232,3.09538 0.746,6.0611 3.9921,5.70745 2.4633,-0.2559 4.3541,-1.9842 5.5231,-4.38556 l -0.8306,0.0559"
           id="path7241"
           style="font-size:22.5px;font-weight:normal;fill:#ffffff;font-family:Blenda Script;-inkscape-font-specification:Blenda Script" />
        <path
           d="m 1026.3096,544.11121 c -0.691,2.1324 -3.928,4.14658 -3.4954,1.57032 0.4545,-2.5993 0.8783,-4.61268 1.492,-8.0711 l 0.1592,-0.85912 -5.6908,0.13819 c -4.0231,0.23273 -5.7121,3.89731 -5.9391,7.52639 -0.2918,4.66595 4.8525,5.19373 7.1505,1.58189 0.3864,3.86175 5.7493,2.2686 7.2008,-1.90787 l -0.8772,0.0213 m -6.2922,0.40036 c -3.0024,4.25914 -4.5383,2.18081 -3.7825,-1.91124 0.6988,-3.66304 3.2941,-6.15677 4.7268,-3.69333 l -0.9443,5.60457"
           id="path7243"
           style="font-size:22.5px;font-weight:normal;fill:#ffffff;font-family:Blenda Script;-inkscape-font-specification:Blenda Script" />
        <path
           d="m 1031.9369,544.35619 c -0.7244,2.08334 -3.8763,3.95537 -3.3483,1.39697 0.5508,-2.58062 2.1034,-9.55869 2.9176,-13.37351 l -3.0372,-0.0391 -2.5146,11.78107 c -1.2698,5.99163 5.0906,4.836 6.8374,0.24564 l -0.8549,-0.011"
           id="path7245"
           style="font-size:22.5px;font-weight:normal;fill:#ffffff;font-family:Blenda Script;-inkscape-font-specification:Blenda Script" />
        <path
           d="m 1053.7688,532.6909 -7.2286,10.44326 2.2766,-10.89715 c -1.6593,-0.13697 -3.0048,-0.24803 -4.4639,-0.075 -1.6647,0.20124 -3.1237,0.64523 -4.2609,1.5673 -1.4024,1.12596 -2.1892,3.27351 -2.1383,6.21266 l 3.1643,-1.13855 c -0.67,-1.45505 -0.6789,-3.26191 -0.04,-3.8865 0.814,-0.83587 2.249,-0.98835 3.7026,-1.09412 l -8.1392,14.36413 2.1302,0.17583 5.5791,-9.87953 -1.9464,10.17938 2.8029,0.23136 6.7265,-9.82998 -3.1835,10.12243 3.115,0.2797 4.776,-16.56074 -2.872,-0.2145"
           id="path7247"
           style="font-size:22.5px;font-weight:normal;fill:#ffffff;font-family:Blenda Script;-inkscape-font-specification:Blenda Script" />
        <path
           d="m 1068.0706,547.92767 c -1.0441,1.98349 -4.577,3.41666 -3.7118,0.95178 0.8908,-2.48384 1.6514,-4.39558 2.8454,-7.69885 l 0.3032,-0.81944 -5.6311,-0.83348 c -4.0039,-0.45615 -6.2926,2.86706 -7.1346,6.40439 -1.0826,4.54801 3.8966,5.9446 6.7764,2.77712 -0.2773,3.87111 5.2787,3.21503 7.4206,-0.65304 l -0.8681,-0.12848 m -6.2683,-0.67759 c -3.6843,3.68526 -4.8436,1.37563 -3.4015,-2.52779 1.3127,-3.49041 4.2948,-5.50549 5.2869,-2.83395 l -1.8854,5.36174"
           id="path7249"
           style="font-size:22.5px;font-weight:normal;fill:#ffffff;font-family:Blenda Script;-inkscape-font-specification:Blenda Script" />
        <path
           d="m 1078.0938,546.32017 c 0.3118,-0.64936 0.4514,-1.35569 0.3354,-1.92907 -0.3028,-1.25251 -1.4345,-2.14132 -3.0725,-2.55684 -1.126,-0.33724 -2.2999,-0.43169 -3.429,-0.17322 -2.073,0.39296 -2.7491,1.95655 -2.0707,3.39796 0.2043,0.59083 0.7487,1.31769 1.2571,1.76222 0.469,0.52847 0.8755,0.79231 1.5608,1.38648 0.5264,0.58569 1.1945,1.38288 0.7151,2.06791 -0.4179,0.60547 -1.079,0.93349 -1.8464,1.10289 -1.3277,0.2192 -2.763,-0.29386 -2.906,-1.07898 -0.1691,-0.65269 0.5929,-1.25893 2.0443,-1.40781 l -1.3585,-1.71346 c -1.4378,0.31211 -2.34,1.39523 -2.3728,2.48964 -0.049,3.72877 9.9518,4.53589 9.7115,-0.28215 -0.09,-0.59109 -0.3598,-1.08028 -0.7669,-1.57358 -0.4776,-0.48432 -1.0613,-1.01252 -1.5784,-1.41291 -0.5924,-0.48406 -1.0701,-0.96838 -1.3799,-1.37364 -0.2258,-0.36574 -0.279,-0.44505 -0.2492,-0.94375 -10e-4,-0.45891 0.5007,-1.02485 1.2417,-1.17654 0.4584,-0.23049 1.1512,-0.2541 1.6193,-0.0698 1.3026,0.37214 0.6874,1.51198 0.2254,2.10872 l 2.3197,1.37595"
           id="path7251"
           style="font-size:22.5px;font-weight:normal;fill:#ffffff;font-family:Blenda Script;-inkscape-font-specification:Blenda Script" />
        <path
           d="m 1088.1579,548.80029 c 0.3414,-0.63428 0.5135,-1.33342 0.424,-1.91154 -0.2447,-1.26514 -1.3342,-2.2052 -2.9513,-2.69583 -1.1092,-0.38881 -2.2776,-0.5373 -3.4173,-0.33118 -2.089,0.29693 -2.8364,1.82768 -2.2253,3.29883 0.1769,0.59963 0.6872,1.35083 1.1746,1.81834 0.444,0.54952 0.838,0.83184 1.4951,1.45698 0.4989,0.60935 1.1295,1.4365 0.619,2.09869 -0.4454,0.58555 -1.1209,0.88273 -1.8954,1.01656 -1.3364,0.15773 -2.7464,-0.42097 -2.853,-1.21186 -0.1389,-0.65979 0.6503,-1.23024 2.107,-1.31202 l -1.278,-1.77429 c -1.4507,0.24546 -2.4019,1.28582 -2.4851,2.37755 -0.221,3.72254 9.732,4.99005 9.7142,0.16606 -0.062,-0.5946 -0.3097,-1.09574 -0.6935,-1.60729 -0.4548,-0.50583 -1.0135,-1.06039 -1.5117,-1.4842 -0.5694,-0.51087 -1.0242,-1.0167 -1.315,-1.43582 -0.2087,-0.37577 -0.2581,-0.45744 -0.2054,-0.95423 0.02,-0.45847 0.5475,-1.00067 1.2947,-1.11803 0.4685,-0.2091 1.1616,-0.20074 1.6207,0.005 1.284,0.43182 0.6169,1.54208 0.1279,2.11687 l 2.2538,1.48147"
           id="path7253"
           style="font-size:22.5px;font-weight:normal;fill:#ffffff;font-family:Blenda Script;-inkscape-font-specification:Blenda Script" />
        <path
           d="m 1087.9622,554.78877 c -0.1368,0.47573 -0.082,0.93632 0.143,1.37556 0.2527,0.42383 0.6138,0.71495 1.0896,0.85172 0.4757,0.13678 0.9363,0.0819 1.3972,-0.13676 0.4238,-0.25273 0.7149,-0.61385 0.8517,-1.08958 0.1368,-0.47573 0.082,-0.93632 -0.1368,-1.39718 -0.2743,-0.43005 -0.6355,-0.72117 -1.1112,-0.85794 -0.4757,-0.13678 -0.9363,-0.0819 -1.3755,0.14298 -0.4301,0.27435 -0.7212,0.63547 -0.858,1.1112"
           id="path7255"
           style="font-size:22.5px;font-weight:normal;fill:#ffffff;font-family:Blenda Script;-inkscape-font-specification:Blenda Script" />
      </g>
    </g>
    <text
       x="956.36139"
       y="663.328"
       id="text12433"
       xml:space="preserve"
       style="font-size:48px;font-style:normal;font-variant:normal;font-weight:bold;font-stretch:normal;line-height:125%;letter-spacing:0px;word-spacing:0px;fill:#000000;fill-opacity:1;stroke:none;font-family:Ubuntu;-inkscape-font-specification:Sans Bold"><tspan
         x="956.36139"
         y="663.328"
         id="tspan12435"></tspan></text>
  </g>
</svg>
